<svg width="260" height="260" viewBox="0 0 260 260" fill="none" xmlns="http://www.w3.org/2000/svg">
<path d="M43.3337 195V187.958C43.3337 184.275 45.067 180.808 47.7753 179.183C66.0837 168.241 86.992 162.5 108.334 162.5C108.659 162.5 108.875 162.5 109.2 162.608C110.284 155.025 112.45 147.766 115.592 141.158C113.209 140.941 110.825 140.833 108.334 140.833C82.117 140.833 57.6337 148.091 36.7253 160.55C27.192 166.183 21.667 176.8 21.667 187.958V216.666H121.984C117.434 210.166 113.859 202.8 111.475 195H43.3337Z" fill="black"/>
<path d="M108.333 130C132.275 130 151.667 110.608 151.667 86.6663C151.667 62.7247 132.275 43.333 108.333 43.333C84.3917 43.333 65 62.7247 65 86.6663C65 110.608 84.3917 130 108.333 130ZM108.333 64.9997C120.25 64.9997 130 74.7497 130 86.6663C130 98.583 120.25 108.333 108.333 108.333C96.4167 108.333 86.6667 98.583 86.6667 86.6663C86.6667 74.7497 96.4167 64.9997 108.333 64.9997Z" fill="black"/>
<path d="M224.791 173.333C224.791 170.95 224.466 168.783 224.141 166.508L236.491 155.566L225.657 136.825L209.949 142.133C206.482 139.208 202.582 136.933 198.249 135.308L194.999 119.167H173.332L170.082 135.308C165.749 136.933 161.849 139.208 158.382 142.133L142.674 136.825L131.841 155.566L144.191 166.508C143.866 168.783 143.541 170.95 143.541 173.333C143.541 175.717 143.866 177.883 144.191 180.158L131.841 191.1L142.674 209.842L158.382 204.533C161.849 207.458 165.749 209.733 170.082 211.358L173.332 227.5H194.999L198.249 211.358C202.582 209.733 206.482 207.458 209.949 204.533L225.657 209.842L236.491 191.1L224.141 180.158C224.466 177.883 224.791 175.717 224.791 173.333ZM184.166 195C172.249 195 162.499 185.25 162.499 173.333C162.499 161.417 172.249 151.667 184.166 151.667C196.082 151.667 205.832 161.417 205.832 173.333C205.832 185.25 196.082 195 184.166 195Z" fill="black"/>
</svg>
