<svg width="614" height="404" viewBox="0 0 614 404" fill="none" xmlns="http://www.w3.org/2000/svg">
<path d="M488.546 242.794L487.349 254.218C484.236 261.659 481.123 269.095 478.014 276.526C476.928 279.136 475.837 281.741 474.742 284.341C474.245 285.558 473.541 286.678 472.66 287.653C472.616 287.719 472.558 287.774 472.49 287.813C472.422 287.853 472.346 287.877 472.268 287.883C472.004 287.883 471.909 287.532 471.889 287.268C471.74 284.45 471.403 281.646 470.882 278.872C467.968 265.48 452.42 260.573 440.225 260.877C435.346 260.951 430.539 262.065 426.124 264.142C419.756 267.225 417.275 275.796 416.937 276.114L416.667 277.216L412.3 295.407C411.38 299.463 410.677 301.606 406.932 302.687C406.811 302.728 403.079 304.715 402.957 304.715C401.511 305.121 405.472 304.249 403.904 303.985L398.935 303.208L396.819 302.721L365.946 295.414C367.143 295.617 368.366 295.84 369.61 296.09L376.776 297.8L374.883 288.715C369.955 260.431 378.121 234.77 392.033 220.837C395.697 217.174 397.516 216.234 401.788 213.793L404.188 219.479C404.188 219.479 428.74 226.8 434.527 204.336C436.865 204.539 441.361 204.505 443.68 205.012C455.766 207.547 466.682 213.989 474.742 223.345C475.452 224.157 476.148 224.995 476.837 225.847L477.202 226.293C477.628 226.827 478.081 227.374 478.507 227.922L478.811 228.355C482.345 232.967 485.596 237.789 488.546 242.794Z" fill="black"/>
<path d="M196.812 124.548C200.705 105.079 217.24 86.2188 264.466 81.8991C369.435 72.3067 312.691 43.3671 346.87 11.6965C381.049 -19.9741 510.28 32.132 476.473 113.509C442.666 194.886 554.267 104.565 601.533 207.642C608.38 222.6 611.677 238.938 611.166 255.381C610.57 272.754 606.096 289.775 598.072 305.195C582.977 334.683 554.936 360.952 514.383 377.23C508.398 379.668 502.134 381.861 495.59 383.807" stroke="#CCDDE2" stroke-width="4.52" stroke-miterlimit="10"/>
<path d="M529.323 284.665C528.505 294.217 522.029 295.772 522.029 295.772C516.553 299.01 508.144 295.529 506.447 289.458C506.421 289.393 506.408 289.325 506.406 289.255C505.054 284.057 502.418 277.378 498.876 270.07C492.048 253.549 483.172 236.892 471.788 223.717C463.728 214.361 452.812 207.919 440.726 205.384C440.686 205.384 440.665 205.343 440.625 205.343C424.597 200.517 416.796 190.661 413.416 181.21C413.416 181.21 413.416 181.21 413.416 181.17C411.969 175.201 410.496 169.38 411.286 165.858C412.638 159.686 413.314 153.014 411.631 151.662C409.515 149.891 405.689 151.203 395.955 153.163C387.525 154.894 383.03 153.913 382.016 148.762C381.855 147.963 381.774 147.15 381.772 146.335C381.732 146.849 379.744 144.808 379.65 145.294C379.014 147.924 377.743 148.979 374.972 150.135C370.855 151.845 369.172 158.449 368.563 162.85C367.928 167.535 370.037 173.997 371.707 178.398C369.57 175.958 367.123 176.242 363.297 177.722C362.337 178.087 359.917 177.986 358.004 177.317C358.274 177.085 358.593 176.916 358.937 176.823C359.552 176.62 355.091 174.403 355.74 174.261C362.236 172.794 365.88 167.379 365.109 162.614C363.196 150.615 365.744 136.5 373.85 127.151C382.786 116.869 397.368 114.732 409.711 119.437C419.405 123.122 428.572 130.679 431.931 140.758C431.931 140.799 431.931 140.84 431.972 140.88C432.399 142.162 432.726 143.475 432.952 144.808C434.189 152.305 431.546 159.903 430.079 167.312C429.552 169.982 430.89 172.895 431.174 175.011C432.804 187.72 447.473 191.31 459.08 196.704C483.476 208.068 503.398 227.496 516.797 251.122C525.693 266.765 528.87 277.432 529.323 284.665Z" fill="#2819FA"/>
<path d="M400.706 211.272C400.443 211.414 400.179 211.556 399.936 211.718C395.554 214.229 391.526 217.312 387.957 220.885C374.052 234.817 365.885 260.478 370.814 288.762L372.706 297.8" stroke="black" stroke-width="4.52" stroke-miterlimit="10"/>
<path d="M523.74 401.052C523.743 379.937 521.917 358.862 518.285 338.063C515.854 323.95 512.508 310.011 508.266 296.333C505.718 288.025 502.601 279.061 498.897 270.064C495.457 261.643 491.482 253.452 486.999 245.538C482.652 237.789 477.565 230.479 471.81 223.71C463.749 214.355 452.833 207.912 440.747 205.377C438.429 204.886 436.084 204.534 433.724 204.323" stroke="black" stroke-width="4.52" stroke-miterlimit="10"/>
<path d="M273.877 217.295L273.532 217.234C269.404 216.543 265.168 216.898 261.212 218.268C257.257 219.638 253.709 221.979 250.893 225.076L227.774 250.264L225.07 253.238C224.902 253.421 224.743 253.613 224.597 253.813" stroke="black" stroke-width="4.52" stroke-miterlimit="10"/>
<path d="M240.487 260.39L253.176 246.316L253.196 246.296" stroke="black" stroke-width="4.52" stroke-miterlimit="10"/>
<path d="M350.866 333.087L410.55 354.118C416.298 356.143 422.415 356.907 428.484 356.358C434.554 355.808 440.433 353.959 445.725 350.934C451.015 347.909 455.592 343.78 459.145 338.828C462.698 333.877 465.143 328.219 466.313 322.237L480.435 250.149C481.157 246.447 481.124 242.638 480.336 238.949C479.548 235.26 478.023 231.77 475.852 228.686C475.245 227.817 474.586 226.986 473.878 226.198" stroke="black" stroke-width="4.52" stroke-miterlimit="10"/>
<path d="M311.365 330.18C303.767 335.311 298.183 350.893 295.216 361.121C294.707 362.836 293.656 364.341 292.22 365.408C290.785 366.476 289.042 367.049 287.253 367.043C286.041 367.043 284.845 366.78 283.744 366.272C282.057 365.48 280.685 364.143 279.851 362.477C279.017 360.81 278.769 358.91 279.147 357.085C284.116 332.79 301.651 284.828 361.89 295.4C363.093 295.603 364.317 295.826 365.554 296.076L372.706 297.8L392.763 302.687L398.171 303.992C400.223 304.49 402.373 304.413 404.383 303.769C404.507 303.745 404.63 303.711 404.748 303.668C406.601 303.032 408.263 301.94 409.58 300.49C410.898 299.042 411.829 297.284 412.286 295.38L416.849 276.398L417.112 275.296L423.088 250.48" stroke="black" stroke-width="4.52" stroke-miterlimit="10"/>
<path d="M281.989 252.393H261.547C259.216 252.393 256.98 251.467 255.332 249.819C253.684 248.171 252.759 245.936 252.759 243.605C252.759 241.274 253.684 239.039 255.332 237.391C256.98 235.743 259.216 234.817 261.547 234.817H290.507" stroke="black" stroke-width="4.52" stroke-miterlimit="10"/>
<path d="M266.298 252.386C266.008 255.969 264.642 258.619 262.628 260.451C257.436 265.183 247.925 264.642 241.307 261.404" stroke="black" stroke-width="4.52" stroke-miterlimit="10"/>
<path d="M227.8 250.257C221.939 243.172 223.136 233.566 227.685 226.144C240.59 205.08 270.077 209.122 289.201 217.877C304.695 224.947 318.269 235.574 331.485 246.174C337.941 251.352 344.282 256.747 350.413 262.398C351.538 263.417 352.881 264.166 354.338 264.592C355.795 265.017 357.33 265.105 358.826 264.852C360.323 264.598 361.743 264.008 362.979 263.127C364.215 262.245 365.234 261.095 365.961 259.762C369.341 253.522 372.998 246.715 373.688 244.829" stroke="black" stroke-width="4.52" stroke-miterlimit="10"/>
<path d="M262.635 260.451C262.635 260.451 293.129 276.993 315.782 300.761" stroke="black" stroke-width="4.52" stroke-miterlimit="10"/>
<path d="M303.924 339.151C300.544 344.924 303.451 353.401 309.839 355.429C317.997 358.061 326.623 358.926 335.142 357.964C344.437 356.882 350.615 349.21 354.685 340.422C354.979 339.768 355.133 339.059 355.136 338.342C355.138 337.625 354.99 336.915 354.701 336.26C354.412 335.603 353.987 335.016 353.456 334.534C352.924 334.053 352.297 333.689 351.616 333.466C350.386 333.061 349.048 333.135 347.871 333.672C346.693 334.209 345.761 335.171 345.261 336.366C343.909 339.489 341.821 343.396 339.049 345.154" stroke="black" stroke-width="4.52" stroke-miterlimit="10"/>
<path d="M319.845 338.069C319.845 338.069 311.496 347.047 318.081 356.551C318.37 356.951 318.711 357.31 319.095 357.619" stroke="black" stroke-width="4.52" stroke-miterlimit="10"/>
<path d="M330.856 339.55C330.856 339.55 323.136 356.923 333.039 358.194" stroke="black" stroke-width="4.52" stroke-miterlimit="10"/>
<path d="M604.94 401.066H126.846" stroke="white" stroke-width="4.52" stroke-miterlimit="10"/>
<path d="M314.93 368.327H267.252C266.768 372.828 264.635 376.991 261.265 380.014C257.895 383.037 253.526 384.706 249 384.7H88.7471C88.7559 389.034 90.4817 393.188 93.546 396.253C96.611 399.318 100.765 401.043 105.1 401.052H314.93C319.271 401.05 323.435 399.329 326.51 396.264C329.585 393.199 331.32 389.041 331.336 384.7V373.708C331.336 372.274 330.767 370.898 329.752 369.884C328.738 368.87 327.362 368.3 325.928 368.3L314.93 368.327Z" stroke="white" stroke-width="4.52" stroke-miterlimit="10"/>
<path d="M241.307 261.404C242.712 263.348 243.722 265.548 244.281 267.88L266.867 362.074C267.365 364.119 267.496 366.236 267.252 368.327C266.768 372.828 264.636 376.991 261.266 380.014C257.896 383.036 253.527 384.706 249 384.7H85.7728C81.6506 384.699 77.6487 383.31 74.412 380.757C71.1753 378.203 68.8931 374.634 67.9332 370.625L45.3886 276.438C44.7403 273.741 44.7126 270.933 45.3068 268.224C45.901 265.514 47.1016 262.975 48.8193 260.797C50.5363 258.619 52.7252 256.859 55.221 255.649C57.7168 254.439 60.4546 253.811 63.2282 253.813H226.442C229.123 253.807 231.773 254.394 234.201 255.531C236.629 256.668 238.776 258.327 240.489 260.39L241.307 261.404Z" stroke="white" stroke-width="4.52" stroke-miterlimit="10"/>
<path d="M215.74 144.179C214.699 142.955 213.604 141.779 212.461 140.637C206.051 134.204 198.432 129.101 190.044 125.62C181.655 122.14 172.662 120.351 163.58 120.357H78.0115C68.9322 120.353 59.9407 122.139 51.5515 125.612C43.163 129.085 35.5404 134.178 29.1205 140.598C22.7007 147.019 17.609 154.641 14.1367 163.031C10.6643 171.42 8.87936 180.412 8.88382 189.491V189.985C8.8751 196.426 10.5158 202.764 13.6496 208.392C17.1712 211.978 21.3747 214.824 26.0127 216.762C30.6507 218.7 35.6294 219.69 40.6558 219.675H124.547C127.107 219.675 129.563 220.691 131.374 222.502C133.184 224.312 134.201 226.768 134.201 229.328C134.204 231.891 135.225 234.348 137.038 236.16C138.852 237.971 141.311 238.988 143.874 238.988H144.084L164.796 238.461C164.796 238.258 164.756 238.075 164.756 237.893C162.965 237.277 161.412 236.118 160.312 234.576C159.213 233.034 158.623 231.188 158.625 229.294V228.848C158.627 226.288 159.644 223.834 161.454 222.024C163.264 220.214 165.718 219.196 168.278 219.195H188.7C198.74 219.195 208.369 215.206 215.468 208.107C222.567 201.008 226.556 191.379 226.556 181.339C226.591 168.171 222.836 155.271 215.74 144.179ZM67.5606 184.232C64.2867 184.233 61.0858 183.263 58.3636 181.446C55.6407 179.627 53.5187 177.042 52.2654 174.018C51.0128 170.993 50.6849 167.665 51.3237 164.454C51.9625 161.243 53.539 158.294 55.8549 155.979C58.1702 153.665 61.1203 152.09 64.3313 151.451C67.5423 150.814 70.8702 151.143 73.8947 152.398C76.9184 153.652 79.5028 155.775 81.3192 158.499C83.1363 161.222 84.105 164.423 84.1023 167.697C84.0969 172.082 82.3521 176.286 79.2513 179.385C76.1498 182.485 71.9458 184.228 67.5606 184.232ZM121.553 184.232C118.279 184.231 115.08 183.259 112.359 181.439C109.639 179.619 107.518 177.033 106.268 174.008C105.016 170.984 104.691 167.656 105.331 164.445C105.971 161.236 107.549 158.288 109.865 155.975C112.181 153.661 115.131 152.087 118.342 151.451C121.553 150.814 124.88 151.144 127.903 152.399C130.927 153.654 133.51 155.777 135.326 158.5C137.143 161.223 138.111 164.424 138.108 167.697C138.108 169.87 137.679 172.022 136.847 174.029C136.015 176.037 134.796 177.86 133.258 179.396C131.72 180.932 129.895 182.149 127.887 182.979C125.878 183.809 123.726 184.235 121.553 184.232ZM172.976 184.232C169.703 184.229 166.505 183.256 163.784 181.435C161.065 179.615 158.946 177.029 157.696 174.003C156.446 170.979 156.121 167.651 156.761 164.441C157.403 161.232 158.981 158.284 161.297 155.972C163.614 153.66 166.563 152.086 169.774 151.45C172.985 150.815 176.312 151.145 179.335 152.4C182.358 153.655 184.941 155.778 186.757 158.501C188.573 161.224 189.541 164.424 189.538 167.697C189.538 169.87 189.109 172.023 188.277 174.03C187.444 176.039 186.224 177.863 184.686 179.399C183.147 180.934 181.321 182.151 179.312 182.981C177.303 183.81 175.15 184.235 172.976 184.232Z" fill="#D7E8F0"/>
<path d="M226.556 181.345C226.556 191.385 222.567 201.014 215.468 208.114C208.369 215.213 198.74 219.201 188.7 219.201H168.291C165.733 219.203 163.28 220.219 161.47 222.028C159.66 223.837 158.641 226.289 158.638 228.848V229.294C158.637 231.188 159.227 233.034 160.326 234.576C161.425 236.118 162.979 237.277 164.769 237.893C165.712 238.221 166.705 238.385 167.703 238.38L164.81 238.461L144.084 238.988H143.861C141.299 238.988 138.841 237.971 137.028 236.162C135.214 234.352 134.193 231.897 134.187 229.335C134.187 226.774 133.17 224.319 131.359 222.508C129.549 220.698 127.094 219.681 124.534 219.681H40.6558C30.6158 219.681 20.987 215.693 13.8876 208.594C6.78821 201.494 2.7998 191.865 2.7998 181.825V181.332C2.80068 172.258 4.58877 163.274 8.06186 154.891C11.5349 146.508 16.6252 138.892 23.0417 132.477C29.4583 126.062 37.0757 120.973 45.4588 117.501C53.8419 114.03 62.8273 112.243 71.9005 112.245H157.442C175.769 112.246 193.345 119.527 206.306 132.485C219.267 145.443 226.55 163.018 226.556 181.345Z" stroke="black" stroke-width="4.52" stroke-miterlimit="10"/>
<path d="M440.727 205.357C440.686 205.357 440.666 205.316 440.625 205.316C424.597 200.49 416.796 190.634 413.416 181.183C413.416 181.183 413.416 181.183 413.416 181.143C410.773 173.774 410.834 166.642 411.787 162.384C412.358 160.128 412.72 157.825 412.869 155.502C413.092 148.925 408.265 150.533 394.461 153.285C388.12 154.569 384.064 152.163 382.036 148.742C381.839 148.444 381.667 148.13 381.523 147.802C380.577 145.812 380.184 143.602 380.387 141.407" stroke="black" stroke-width="4.52" stroke-miterlimit="10"/>
<path d="M372.444 179.29C372.201 178.946 371.951 178.614 371.708 178.351C369.572 175.91 367.124 176.194 363.298 177.675C362.338 178.04 359.918 177.938 358.005 177.269C356.396 176.695 355.193 175.701 355.741 174.214C355.881 173.907 356.09 173.638 356.352 173.426C356.613 173.214 356.919 173.064 357.248 172.99C357.885 172.829 358.53 172.7 359.181 172.605C365.745 171.138 364.278 163.54 363.481 158.774C361.547 146.782 364.116 132.667 372.303 123.318C381.32 113.036 396.071 110.893 408.529 115.598C419.487 119.735 429.796 128.712 431.932 140.711C431.932 140.752 431.932 140.792 431.973 140.833C432.014 140.873 431.973 140.934 431.973 140.975C433.237 148.472 431.973 156.597 430.506 164.013C429.627 168.407 429.959 171.996 431.182 174.964C435.015 184.678 447.947 188.065 458.371 192.871C483.038 204.235 503.136 223.663 516.683 247.289C527.377 266.028 529.912 277.554 529.324 284.665C528.506 294.217 522.03 295.772 522.03 295.772C516.554 299.01 508.138 295.529 506.448 289.458C506.423 289.393 506.409 289.324 506.407 289.255C505.055 284.057 502.419 277.378 498.877 270.071" stroke="black" stroke-width="4.52" stroke-miterlimit="10"/>
<path d="M380.359 141.407C380.359 145.024 378.655 148.593 374.951 150.114C370.787 151.831 369.097 156.354 368.488 160.755C367.638 167.199 369.024 173.739 372.416 179.284C375.559 184.502 380.676 190.255 387.923 190.255C401.2 190.255 406.892 183.853 406.892 183.853" stroke="black" stroke-width="4.52" stroke-miterlimit="10"/>
<path d="M394.143 162.83C395.39 162.83 396.4 161.819 396.4 160.572C396.4 159.325 395.39 158.314 394.143 158.314C392.896 158.314 391.885 159.325 391.885 160.572C391.885 161.819 392.896 162.83 394.143 162.83Z" fill="black"/>
<path d="M374.283 164.148C375.53 164.148 376.541 163.137 376.541 161.89C376.541 160.644 375.53 159.632 374.283 159.632C373.037 159.632 372.025 160.644 372.025 161.89C372.025 163.137 373.037 164.148 374.283 164.148Z" fill="black"/>
<path d="M384.023 158.449C384.023 158.449 382.895 167.366 383.347 168.589C383.8 169.813 386.626 168.414 386.626 168.414" stroke="black" stroke-width="4.52" stroke-miterlimit="10"/>
<path d="M388.207 176.215C393.04 177.993 398.029 175.728 399.489 171.381" stroke="black" stroke-width="4.52" stroke-miterlimit="10"/>
<path d="M405.829 163.835C409.108 159.194 407.912 152.709 403.158 149.35C398.405 145.992 391.893 147.032 388.614 151.673C385.336 156.314 386.531 162.799 391.285 166.157C396.039 169.515 402.551 168.476 405.829 163.835Z" stroke="black" stroke-width="4.52" stroke-miterlimit="10"/>
<path d="M379.425 165.162C382.704 160.521 381.508 154.036 376.755 150.677C372 147.319 365.489 148.359 362.21 153C358.931 157.641 360.127 164.126 364.881 167.484C369.635 170.842 376.146 169.803 379.425 165.162Z" stroke="black" stroke-width="4.52" stroke-miterlimit="10"/>
<path d="M370.633 151.912C372.511 151.907 374.321 152.612 375.7 153.886C377.08 155.16 377.926 156.908 378.069 158.781C378.144 159.711 378.031 160.646 377.736 161.531C377.441 162.417 376.97 163.233 376.352 163.932C375.727 164.64 374.966 165.215 374.113 165.621C373.26 166.028 372.334 166.258 371.39 166.298H371.012C369.133 166.303 367.322 165.597 365.943 164.322C364.563 163.046 363.718 161.296 363.576 159.423C363.502 158.493 363.617 157.556 363.913 156.671C364.209 155.787 364.681 154.97 365.3 154.272C365.925 153.565 366.686 152.992 367.537 152.585C368.388 152.179 369.312 151.948 370.255 151.906H370.633V151.912ZM370.633 150.378H370.18C369.041 150.429 367.923 150.708 366.894 151.199C365.864 151.691 364.943 152.384 364.187 153.237C363.431 154.091 362.853 155.088 362.489 156.169C362.125 157.25 361.982 158.393 362.068 159.531C362.252 161.785 363.274 163.887 364.935 165.422C366.595 166.958 368.771 167.813 371.032 167.819H371.485C372.625 167.767 373.742 167.488 374.772 166.997C375.801 166.506 376.721 165.813 377.478 164.959C378.235 164.105 378.812 163.108 379.176 162.027C379.54 160.947 379.683 159.803 379.597 158.666C379.414 156.412 378.391 154.31 376.731 152.774C375.071 151.239 372.895 150.384 370.633 150.378Z" fill="white"/>
<path d="M386.795 158.307L381.252 158.591" stroke="black" stroke-width="4.52" stroke-miterlimit="10"/>
<path opacity="0.53" d="M404.51 162.903C407.286 158.973 406.274 153.481 402.25 150.638C398.225 147.794 392.711 148.675 389.934 152.605C387.157 156.536 388.169 162.027 392.194 164.871C396.219 167.715 401.733 166.834 404.51 162.903Z" fill="white"/>
<path opacity="0.53" d="M378.107 164.23C380.884 160.3 379.872 154.808 375.847 151.964C371.821 149.121 366.308 150.002 363.531 153.932C360.754 157.863 361.766 163.354 365.791 166.198C369.816 169.042 375.33 168.16 378.107 164.23Z" fill="white"/>
<path d="M391.878 190.255L404.188 219.499C404.188 219.499 427.936 225.887 433.709 203.417" stroke="black" stroke-width="4.52" stroke-miterlimit="10"/>
<path d="M158.314 341.82C167.611 338.888 172.477 328.043 169.183 317.596C165.889 307.149 155.682 301.056 146.385 303.987C137.089 306.919 132.222 317.764 135.517 328.211C138.81 338.658 149.017 344.751 158.314 341.82Z" fill="#D7E8F0"/>
<path d="M388.591 401.052C388.328 377.25 384.13 353.732 382.196 344.133" stroke="black" stroke-width="4.52" stroke-miterlimit="10"/>
</svg>
