<svg width="572" height="572" viewBox="0 0 572 572" fill="none" xmlns="http://www.w3.org/2000/svg">
<path d="M101.364 261.661C120.189 235.349 148.4 223.423 148.4 223.423C149.321 223.04 145.397 186.993 145.317 184.436C144.127 142.325 151.111 98.5099 182.766 68.1024C222.337 30.1157 294.134 22.245 339.528 54.2484C338.956 53.8251 354.463 41.6014 355.773 40.8178C364.245 35.7047 373.805 32.6649 383.675 31.9461C423.395 29.0861 459.82 60.2946 474.72 98.0466C489.621 135.799 486.2 221.816 458.864 246.624" stroke="#E5E5E5" stroke-width="5.05" stroke-miterlimit="10"/>
<path d="M84.3926 307.307C85.3713 296.944 88.0356 286.81 92.2805 277.305C92.6849 276.402 93.1081 275.517 93.5503 274.651" stroke="#CCDDE2" stroke-width="5.05" stroke-miterlimit="10"/>
<path d="M133.482 416.811C128.906 412.652 124.667 408.419 120.783 404.164" stroke="#CCDDE2" stroke-width="5.05" stroke-miterlimit="10"/>
<path d="M514.799 293.138C514.834 295.998 514.799 298.916 514.662 301.839C513.85 319.919 509.977 338.607 500.299 353.833C498.537 356.643 496.572 359.319 494.419 361.841C473.827 359.124 470.755 338.12 446.943 326.246C418.417 311.986 371.708 317.094 371.708 317.094L394.72 295.867C393.49 231.94 346.557 235.864 346.557 235.864L344.172 241.704C345.983 236.415 347.816 231.483 349.669 226.907L349.772 226.666C371.508 172.681 394.027 165.989 411.548 158.192C415.733 157.198 420.019 156.687 424.32 156.671C469.114 156.43 495.403 202.047 506.9 238.77C509.76 247.922 514.159 267.496 514.748 289.506C514.759 290.685 514.799 291.914 514.799 293.138Z" fill="#2819FA"/>
<path d="M539.968 532.738C536.49 537.525 530.753 540.134 524.838 540.134H456.885C454.273 540.171 451.683 539.661 449.28 538.638C446.877 537.614 444.716 536.099 442.934 534.191C442.692 533.946 442.466 533.686 442.259 533.413C440.129 530.775 438.797 527.583 438.42 524.215C438.077 521.12 440.377 518.369 443.488 518.495C444.667 518.54 445.79 519.012 446.648 519.821C447.506 520.631 448.042 521.724 448.156 522.899C448.156 523.145 448.207 523.385 448.242 523.626C448.493 525.021 449.107 526.327 450.021 527.412C450.829 528.368 451.844 529.127 452.988 529.633C454.132 530.139 455.377 530.379 456.627 530.335H525.13C526.356 530.356 527.572 530.112 528.695 529.617C529.818 529.124 530.82 528.393 531.634 527.475C532.55 526.414 533.176 525.132 533.449 523.757C533.722 522.381 533.632 520.958 533.189 519.627L502.593 428.651C502.343 427.953 502.047 427.272 501.706 426.615C499.91 422.821 497.064 419.621 493.504 417.397C489.944 415.172 485.821 414.016 481.624 414.065C468.742 414.219 452.389 414.254 450.85 414.254C416.57 414.128 400.972 414.128 392.392 414.357C392.98 412.248 394.045 410.303 395.503 408.671C395.503 408.671 395.538 408.637 395.538 408.619C397.63 406.389 400.494 405.041 403.546 404.85C416.255 403.809 428.839 401.91 441.063 398.592C462.633 392.746 483.208 382.719 497.502 366.595C504.46 358.789 509.72 349.622 512.946 339.676C515.451 331.779 517.028 323.617 517.648 315.355C517.869 312.747 518.007 310.119 518.06 307.473V307.353C518.06 306.746 518.094 306.123 518.094 305.517C518.172 301.747 518 297.977 517.579 294.231C521.315 294.26 524.893 295.741 527.555 298.361C527.789 298.977 527.961 299.615 528.07 300.266C528.174 300.882 528.225 301.505 528.224 302.13V376.118C528.231 381.172 527.233 386.176 525.29 390.841C523.346 395.506 520.497 399.739 516.905 403.294C510.956 409.186 509.263 418.126 512.083 425.991L542.49 516.47C543.409 519.184 543.659 522.08 543.22 524.912C542.781 527.744 541.665 530.429 539.968 532.738Z" fill="black"/>
<path d="M120.791 530.455V323.031H133.484V530.541L120.791 530.455Z" fill="#E5E5E5"/>
<path d="M371.716 317.066C380.805 316.099 391.318 314.955 401.414 315.184" stroke="black" stroke-width="5.05" stroke-miterlimit="10"/>
<path d="M322.203 326.229C306.107 330.29 290.446 336.153 277.084 345.9C254.661 362.236 244.411 392.712 253.575 419.116C253.575 419.15 289.611 523.099 289.611 523.099H280.127C278.082 523.099 276.059 523.503 274.172 524.288C272.285 525.073 270.572 526.225 269.133 527.675C266.313 530.478 264.923 535.151 264.923 539.441H350.283L317.844 433.335C317.035 430.72 316.853 427.951 317.313 425.252C317.773 422.553 318.862 420 320.492 417.801C322.121 415.601 324.246 413.815 326.693 412.589C329.141 411.363 331.843 410.729 334.581 410.741C353.063 411.262 370.228 411.971 388.921 411.159" stroke="black" stroke-width="5.05" stroke-miterlimit="10"/>
<path d="M514.932 302.703V302.588C514.103 280.28 512.982 258.27 506.879 238.753C495.381 202.031 469.092 156.414 424.299 156.654C419.997 156.67 415.712 157.181 411.526 158.175C382 165.194 361.493 195.447 349.75 226.649L349.647 226.89C348.526 229.883 347.489 232.869 346.536 235.847C345.889 237.851 345.092 239.804 344.15 241.687C340.553 248.936 334.851 254.931 327.79 258.886C320.73 262.84 312.64 264.571 304.579 263.852C250.354 258.922 178.888 256.107 156.38 294.208" stroke="black" stroke-width="5.05" stroke-miterlimit="10"/>
<path d="M426.197 261.209C418.304 270.739 409.993 279.942 401.401 288.843C383.812 307.078 368.637 326.446 341.341 327.739C319.565 328.786 298.836 320.429 278.244 314.634C256.216 308.44 245.068 303.486 224.539 297.228C218.626 295.433 212.492 294.471 206.315 294.368L185.648 294.528" stroke="black" stroke-width="5.05" stroke-miterlimit="10"/>
<path d="M345.591 524.438C347.559 523.556 349.692 523.103 351.849 523.111H361.355C361.355 523.111 341.484 484.484 325.594 458.773" stroke="black" stroke-width="5.05" stroke-miterlimit="10"/>
<path d="M358.645 411.245L425.111 540.134H349.928H336.291" stroke="black" stroke-width="5.05" stroke-miterlimit="10"/>
<path d="M539.969 532.738C536.491 537.525 530.754 540.134 524.84 540.134H456.886C451.252 540.134 445.755 537.8 442.243 533.396C440.113 530.757 438.782 527.566 438.405 524.198C438.061 521.103 440.361 518.352 443.473 518.478C444.651 518.523 445.774 518.995 446.632 519.804C447.49 520.614 448.026 521.707 448.14 522.882C448.279 524.543 448.931 526.12 450.005 527.395C450.825 528.336 451.842 529.085 452.983 529.59C454.125 530.095 455.363 530.343 456.611 530.318H525.131C526.358 530.339 527.574 530.094 528.697 529.601C529.819 529.107 530.822 528.376 531.635 527.458C532.552 526.397 533.178 525.115 533.45 523.74C533.723 522.364 533.633 520.941 533.191 519.61L502.594 428.651C501.045 424.344 498.194 420.626 494.437 418.012C490.679 415.399 486.201 414.019 481.625 414.065C468.743 414.219 452.39 414.254 450.851 414.254C412.682 414.134 397.655 414.134 389.693 414.425C389.569 414.424 389.447 414.399 389.332 414.351C389.218 414.303 389.114 414.232 389.027 414.144C388.94 414.056 388.871 413.952 388.825 413.837C388.778 413.722 388.754 413.599 388.755 413.476C388.744 409.944 390.039 406.533 392.393 403.9C392.402 403.894 392.41 403.885 392.416 403.875C392.421 403.866 392.425 403.855 392.427 403.843C394.522 401.618 397.385 400.273 400.435 400.079C413.145 399.038 425.729 397.139 437.953 393.822C459.523 387.976 480.098 377.949 494.392 361.824C501.35 354.019 506.609 344.852 509.836 334.906C512.333 327.011 513.905 318.853 514.521 310.596C514.745 307.979 514.883 305.352 514.933 302.714V302.588C514.933 301.987 514.967 301.364 514.967 300.757C515.045 296.988 514.872 293.218 514.452 289.472C520.675 289.438 526.95 293.962 528.037 300.277C528.141 300.893 528.192 301.516 528.191 302.142V376.118C528.197 381.172 527.2 386.176 525.257 390.841C523.313 395.506 520.463 399.739 516.872 403.294C510.923 409.186 509.23 418.126 512.05 425.991L542.457 516.47C543.38 519.182 543.637 522.076 543.204 524.908C542.771 527.74 541.661 530.426 539.969 532.738Z" stroke="black" stroke-width="5.05" stroke-miterlimit="10"/>
<path d="M213.493 307.313H36.4532C32.1158 307.313 28.5996 310.829 28.5996 315.167V315.172C28.5996 319.51 32.1158 323.026 36.4532 323.026H213.493C217.83 323.026 221.346 319.51 221.346 315.172V315.167C221.346 310.829 217.83 307.313 213.493 307.313Z" stroke="#E5E5E5" stroke-width="5.05" stroke-miterlimit="10"/>
<path d="M163.358 531.439H91.7717C89.3424 531.439 87.373 533.409 87.373 535.838C87.373 538.267 89.3424 540.237 91.7717 540.237H163.358C165.787 540.237 167.756 538.267 167.756 535.838C167.756 533.409 165.787 531.439 163.358 531.439Z" stroke="#E5E5E5" stroke-width="5.05" stroke-miterlimit="10"/>
<path d="M110.887 300.26V301.049C111.001 306.478 116.109 307.307 120.513 307.341L205.661 307.284C209.391 307.284 212.468 304.424 212.474 300.912V300.763C212.405 297.331 209.408 294.534 205.724 294.529C205.724 294.529 158.088 294.357 121.194 294.248C120.531 296.182 118.849 297.68 116.75 298.904C114.944 299.851 112.925 300.318 110.887 300.26Z" stroke="#E5E5E5" stroke-width="5.05" stroke-miterlimit="10"/>
<path d="M64.0645 223.784C64.0823 224.687 64.3408 225.57 64.8139 226.34L104.282 292.63C104.793 293.426 105.462 294.109 106.25 294.635C107.038 295.161 107.925 295.518 108.858 295.684C110.435 295.995 112.069 295.817 113.543 295.175C115.962 294.1 117.358 291.932 117.312 289.735C117.303 289.459 117.274 289.183 117.226 288.912C117.104 288.306 116.88 287.725 116.563 287.196L77.0947 220.906C75.3787 218.006 71.1802 216.868 67.8054 218.361C65.3973 219.414 64.0016 221.581 64.0645 223.784Z" stroke="#E5E5E5" stroke-width="5.05" stroke-miterlimit="10"/>
<path d="M170.786 294.529C170.786 294.529 175.539 290.004 186.47 282.82" stroke="black" stroke-width="5.05" stroke-miterlimit="10"/>
<path d="M209.546 220.169L192.221 239.382C191.014 240.721 189.339 241.545 187.543 241.684C185.745 241.824 183.964 241.268 182.565 240.131C181.792 239.504 181.162 238.72 180.715 237.831C180.267 236.943 180.013 235.969 179.971 234.975C179.927 233.981 180.095 232.988 180.464 232.064C180.832 231.14 181.393 230.304 182.108 229.612L185.276 226.546C185.397 226.375 185.534 226.22 185.671 226.06L187.959 223.538L207.636 202.156C210.024 199.532 213.032 197.547 216.384 196.384C219.736 195.221 223.326 194.917 226.827 195.498L227.118 195.55" stroke="black" stroke-width="5.05" stroke-miterlimit="10"/>
<path d="M233.947 225.368H216.616C214.643 225.368 212.752 224.584 211.358 223.19C209.963 221.795 209.18 219.904 209.18 217.932C209.18 215.96 209.963 214.069 211.358 212.674C212.752 211.28 214.643 210.496 216.616 210.496H241.212" stroke="black" stroke-width="5.05" stroke-miterlimit="10"/>
<path d="M220.661 225.368C220.421 228.405 219.26 230.653 217.549 232.232C213.145 236.236 205.068 235.795 199.451 233.044" stroke="black" stroke-width="5.05" stroke-miterlimit="10"/>
<path d="M187.988 223.526C183.006 217.526 184.03 209.369 187.902 203.06C203.889 176.954 234.366 193.033 254.403 204.284C266.331 211.014 277.732 218.636 288.511 227.084C298.052 234.52 306.884 243.42 318.347 247.893C325.211 250.576 333.316 251.217 340.146 248.122" stroke="black" stroke-width="5.05" stroke-miterlimit="10"/>
<path d="M217.548 232.186C229.638 241.11 241.183 250.751 252.12 261.055" stroke="black" stroke-width="5.05" stroke-miterlimit="10"/>
<path d="M364.656 91.8518C367.551 94.4944 371.995 94.6374 375.673 94.2828C380.375 93.8538 385.031 92.7155 389.636 91.7546L392.433 91.6116H392.473C393.009 91.6173 393.539 91.7277 394.032 91.9382C394.526 92.1481 394.973 92.4535 395.349 92.8362C395.724 93.2195 396.021 93.6725 396.221 94.1701C396.421 94.6672 396.522 95.1997 396.517 95.7357C396.58 101.773 395.978 107.798 394.721 113.702L400.08 116.602C400.772 114.669 399.994 111.883 401.636 111.672C402.689 109.71 404.256 108.434 406.715 109.893C411.532 112.753 413.431 121.155 408.792 125.005L411.766 130.565C412.803 132.514 414.484 134.043 416.522 134.89C418.561 135.737 420.83 135.85 422.943 135.209L419.906 128.494C427.033 129.758 432.021 120.864 429.847 115.435C428.366 111.706 428.44 108.806 430.419 105.179C430.551 104.933 429.206 104.607 429.321 104.356C429.39 101.696 428.652 98.8474 427.37 97.4917C425.117 95.0664 420.581 94.6317 421.507 90.948C421.919 89.3453 422.071 87.6865 421.959 86.0346C421.717 83.8753 421.015 81.7926 419.902 79.9273C418.788 78.0615 417.287 76.4559 415.501 75.218C411.749 72.7527 407.551 74.9892 403.541 74.9263C398.673 74.8748 395.184 70.745 390.082 70.6821C387.542 70.642 385.506 71.6316 383.332 72.8614C381.513 73.9082 379.723 75.0007 377.984 76.1847C376.245 77.3688 374.701 78.3926 372.624 78.3984C369.919 78.4327 367.305 76.7167 364.582 77.5175C363.205 77.8881 361.995 78.7147 361.15 79.8627C360.286 84.084 361.848 89.3064 364.656 91.8518Z" fill="#2819FA"/>
<path d="M400.102 115.973C400.451 114.483 400.965 113.036 401.635 111.66C402.687 109.698 404.26 108.422 406.714 109.881C411.53 112.741 413.429 121.144 408.79 124.993L411.765 130.553C412.802 132.502 414.483 134.031 416.521 134.878C418.56 135.725 420.829 135.838 422.941 135.198" stroke="black" stroke-width="5.05" stroke-linecap="round" stroke-linejoin="round"/>
<path d="M419.907 128.483L422.933 135.209C423.694 136.817 425.873 141.759 428.155 146.895C429.78 150.573 431.473 154.36 432.731 157.146" stroke="black" stroke-width="5.05" stroke-linecap="round" stroke-linejoin="round"/>
<path d="M370.891 104.327C370.891 104.327 379.808 102.108 383.703 108.869" stroke="black" stroke-width="5.05" stroke-miterlimit="10"/>
<path d="M373.516 124.513C371.113 125.171 367.882 125.76 366.028 123.666L370.067 115.166C371.047 113.082 371.29 110.726 370.753 108.485C369.872 104.716 367.67 98.9902 370.032 94.0195" stroke="black" stroke-width="5.05" stroke-miterlimit="10"/>
<path d="M379.517 113.121C380.193 111.998 379.672 110.443 378.351 109.647C377.031 108.851 375.412 109.116 374.735 110.239C374.058 111.362 374.58 112.917 375.9 113.713C377.221 114.509 378.839 114.244 379.517 113.121Z" fill="black"/>
<path d="M392.529 166.635L390.412 143.149" stroke="black" stroke-width="5.05" stroke-miterlimit="10"/>
<path d="M400.08 116.591C400.08 116.385 400.08 116.173 400.08 115.967C400.092 115.746 400.092 115.525 400.08 115.304" stroke="black" stroke-width="5.05" stroke-linecap="round" stroke-linejoin="round"/>
<path d="M400.085 116.597L398.243 115.607L394.72 113.691" stroke="black" stroke-width="5.05" stroke-linecap="round" stroke-linejoin="round"/>
<path d="M385.339 125.119C385.339 125.119 385.161 131.068 378.36 133.516" stroke="black" stroke-width="5.05" stroke-miterlimit="10"/>
<path d="M419.904 128.482C427.031 129.747 432.019 120.852 429.845 115.424C428.364 111.694 428.438 108.794 430.417 105.168C430.549 104.922 430.657 104.682 430.772 104.441C432.242 101.198 431.721 97.9835 429.411 95.2264C427.22 92.6181 423.919 91.7029 424.869 87.8991C425.296 86.2477 425.454 84.5386 425.338 82.8369C425.091 80.6158 424.372 78.4737 423.227 76.5546C422.082 74.6356 420.539 72.9842 418.703 71.7115C414.847 69.1547 410.506 71.4713 406.353 71.4083C401.354 71.334 397.745 67.0783 392.499 67.0154C389.874 67.0154 387.757 67.9935 385.527 69.2633C383.651 70.3444 381.792 71.4827 380.018 72.6953C378.245 73.908 376.586 74.9833 374.481 74.9833C371.69 74.9833 368.996 73.2673 366.205 74.0681C363.413 74.8689 361.754 77.1798 361.205 79.8568C360.313 84.0553 361.874 89.3005 364.683 91.8688C367.577 94.5114 372.022 94.6544 375.7 94.2998C380.402 93.8708 385.058 92.7325 389.662 91.7715L392.459 91.6285H392.499C393.036 91.6337 393.566 91.7447 394.059 91.9546C394.553 92.1651 395 92.4699 395.375 92.8532C395.751 93.2359 396.047 93.6895 396.248 94.1865C396.448 94.6842 396.549 95.2161 396.543 95.7527C396.607 101.79 396.005 107.814 394.747 113.719" stroke="black" stroke-width="5.05" stroke-miterlimit="10"/>
<path d="M401.162 134.992C401.162 134.992 390.534 149.109 381.09 145.946C371.647 142.783 371.166 125.308 371.166 125.308" stroke="black" stroke-width="5.05" stroke-linecap="round" stroke-linejoin="round"/>
<path d="M120.791 530.455V323.031H133.484V530.541" stroke="#E5E5E5" stroke-width="5.05" stroke-miterlimit="10"/>
<path d="M192.163 540.134H430.27" stroke="black" stroke-width="3.15" stroke-miterlimit="10"/>
</svg>
